<svg width="58" height="58" viewBox="0 0 58 58" fill="none" xmlns="http://www.w3.org/2000/svg">
<g clip-path="url(#clip0_133_101)">
<path fill-rule="evenodd" clip-rule="evenodd" d="M0 3.8147e-06H58V58H0" fill="#ED1A3A"/>
<path fill-rule="evenodd" clip-rule="evenodd" d="M18.9102 11.2178H25.0444H39.053H39.092V11.5859C39.092 16.2474 39.092 20.8397 39.092 25.5254H18.9102V24.5664H25.0444V23.6183H18.9102V22.6595H25.0444V21.7115H18.9102V20.7524H25.0444V19.8046H18.9102V18.8458H25.0444V17.8975H18.9102V16.9387H25.0444V15.9906H18.9102V15.0318H25.0444V14.0835H18.9102V13.1247H25.0444V12.1765H18.9102V11.5859V11.3824V11.2178ZM18.9102 30.2875H39.092V31.2461H18.9102V30.2875ZM18.9102 28.3804H39.092V29.3394H18.9102V28.3804ZM18.9102 26.4735H39.092V27.4323H18.9102" fill="white"/>
<path fill-rule="evenodd" clip-rule="evenodd" d="M49.9779 35.425H49.9786C50.3712 35.4251 50.728 35.5858 50.9865 35.8445C51.2445 36.1025 51.4048 36.4586 51.4051 36.8509V36.8521V36.8529C51.4049 37.2453 51.2443 37.6021 50.9857 37.8606C50.7275 38.1185 50.3714 38.2788 49.9792 38.2793H49.9779H49.9773C49.5848 38.2791 49.2279 38.1184 48.9694 37.8597C48.7113 37.6018 48.5511 37.2455 48.5508 36.8533V36.8521V36.8514C48.551 36.4588 48.7116 36.1022 48.9702 35.8436C49.2284 35.5856 49.5847 35.4255 49.9767 35.425H49.9779ZM49.9786 35.6495H49.9779H49.9767C49.646 35.65 49.3456 35.785 49.1281 36.0024C48.9105 36.2197 48.7755 36.5203 48.7754 36.8514V36.8521V36.8533C48.7757 37.184 48.9106 37.4846 49.1281 37.7018C49.3456 37.9195 49.6462 38.0546 49.9773 38.0548H49.9779H49.9792C50.31 38.0543 50.6103 37.9193 50.8278 37.7018C51.0454 37.4846 51.1804 37.184 51.1805 36.8529V36.8521V36.8509C51.1802 36.5202 51.0453 36.2197 50.8278 36.0024C50.6103 35.7848 50.3097 35.6497 49.9786 35.6495Z" fill="white"/>
<path fill-rule="evenodd" clip-rule="evenodd" d="M49.375 37.6309V36.0745H50.065C50.2037 36.0745 50.3093 36.0888 50.3813 36.1166C50.4534 36.1447 50.5111 36.1938 50.5545 36.2643C50.5976 36.3353 50.6191 36.4136 50.6191 36.4992C50.6191 36.6096 50.5836 36.7024 50.5117 36.7783C50.4404 36.8539 50.3298 36.9023 50.1806 36.923C50.2353 36.949 50.2767 36.9746 50.3048 37.0003C50.365 37.0555 50.422 37.1248 50.4759 37.2073L50.7466 37.6309H50.4875L50.2817 37.3069C50.2216 37.2139 50.1719 37.1422 50.1327 37.0928C50.0939 37.0431 50.0592 37.0085 50.0284 36.9887C49.9977 36.9688 49.9664 36.9551 49.9346 36.9472C49.911 36.9425 49.8729 36.9398 49.8196 36.9398H49.5808V37.6309H49.375ZM49.5808 36.7617H50.0237C50.1175 36.7617 50.1914 36.7518 50.2444 36.7323C50.2977 36.7128 50.3378 36.6816 50.3654 36.6388C50.3929 36.5959 50.4066 36.5497 50.4066 36.4992C50.4066 36.4257 50.3801 36.3652 50.3267 36.3176C50.2734 36.2701 50.1888 36.2467 50.0734 36.2467H49.5808" fill="white"/>
<path fill-rule="evenodd" clip-rule="evenodd" d="M7.91016 43.946V35.3293H9.9161V42.3239H16.3794V43.946H7.91016ZM19.3479 42.5939H25.0377V38.1839H19.3479V42.5939ZM17.6286 38.5514C17.6286 37.9085 17.7537 37.4717 18.0041 37.2379C18.2546 37.0042 18.7387 36.8876 19.462 36.8876H24.9237C25.6527 36.8876 26.1396 37.0042 26.3871 37.2379C26.6348 37.4717 26.7571 37.9085 26.7571 38.5514V42.2766C26.7571 42.9223 26.6319 43.3619 26.3788 43.5954C26.1256 43.8292 25.6415 43.946 24.9237 43.946H19.462C18.7387 43.946 18.2546 43.8292 18.0041 43.5954C17.7537 43.3619 17.6286 42.9223 17.6286 42.2766V38.5514ZM28.9663 38.5514C28.9663 37.9085 29.0886 37.4717 29.3363 37.2379C29.5837 37.0042 30.0707 36.8876 30.7997 36.8876H36.2614C37.0015 36.8876 37.491 37.0042 37.7331 37.2379C37.9751 37.4717 38.0948 37.9085 38.0948 38.5514V42.2601C38.0948 42.8998 37.9697 43.3394 37.7164 43.576C37.4633 43.8126 36.9792 43.9349 36.2614 43.946H35.4295L36.3586 45.7461H34.656L33.8575 43.946H30.7997C30.0875 43.946 29.6034 43.8292 29.35 43.5929C29.0943 43.3563 28.9663 42.9112 28.9663 42.2601V38.5514ZM30.6856 42.5939H33.2702L32.5358 41.0775L33.774 40.6045L34.745 42.5939H36.3754V38.1839H30.6856V42.5939ZM40.0673 43.946V43.1809L45.2425 38.1505H40.5904V36.8876H48.0301V37.5886L42.7577 42.6412H48.0301V43.946" fill="white"/>
<path fill-rule="evenodd" clip-rule="evenodd" d="M9.79646 46.296H8.77905C8.6319 46.296 8.51893 46.3081 8.44192 46.3334C8.36445 46.3584 8.30443 46.4001 8.26078 46.4581C8.23098 46.4986 8.20951 46.5457 8.19619 46.6013C8.18331 46.6561 8.1766 46.742 8.1766 46.8583V46.9334V47.5153C8.1766 47.6319 8.18331 47.7177 8.19619 47.7725C8.20951 47.8279 8.23098 47.875 8.26078 47.9158C8.30533 47.9756 8.36641 48.0178 8.44549 48.0419C8.52465 48.066 8.65292 48.0779 8.83048 48.0779H9.79646C9.94468 48.0779 10.0591 48.0655 10.1393 48.0405C10.2189 48.0152 10.2799 47.9737 10.3218 47.9158L9.44224 47.3455L9.57168 47.1335L10.3927 47.6836C10.3927 47.676 10.3927 47.6642 10.3927 47.6493C10.397 47.5513 10.3988 47.4819 10.3988 47.4419V46.8929C10.3988 46.7594 10.3921 46.6645 10.3795 46.6068C10.3662 46.5499 10.3435 46.5002 10.3116 46.4581C10.2684 46.4001 10.2086 46.3584 10.1321 46.3334C10.0561 46.3081 9.94379 46.296 9.79646 46.296ZM8.91467 48.3334C8.677 48.3334 8.50104 48.3217 8.38708 48.2982C8.27321 48.2746 8.17973 48.2345 8.1063 48.1768C8.02623 48.1148 7.96827 48.0321 7.9323 47.9279C7.8968 47.8243 7.87891 47.6879 7.87891 47.5183V46.9077C7.87891 46.7224 7.89627 46.5751 7.93177 46.4652C7.96658 46.3553 8.02408 46.2693 8.10317 46.2061C8.17446 46.1496 8.26794 46.1096 8.38405 46.0854C8.49988 46.0614 8.67601 46.0495 8.91206 46.0495H9.66345C9.89943 46.0495 10.0756 46.0614 10.1917 46.0854C10.3075 46.1096 10.401 46.1496 10.4723 46.2061C10.5493 46.2671 10.6063 46.3517 10.6422 46.4607C10.6787 46.5694 10.6966 46.7095 10.6966 46.8809V47.4871C10.6966 47.5518 10.6935 47.6144 10.6868 47.6734C10.6802 47.7325 10.6703 47.7916 10.6574 47.8509L10.904 48.004L10.7807 48.2176L10.5642 48.0717C10.4989 48.1682 10.4046 48.2359 10.2804 48.275C10.1562 48.3138 9.95096 48.3334 9.66345 48.3334H8.91467ZM13.5042 46.7229V48.3062H13.2635V48.0071C13.2004 48.1237 13.1122 48.2057 12.9991 48.2545C12.8857 48.3032 12.7183 48.3273 12.4966 48.3273C12.1609 48.3273 11.9233 48.2836 11.7848 48.1964C11.6458 48.1091 11.5765 47.9618 11.5765 47.7546V46.7229H11.8258V47.6777C11.8258 47.7739 11.8336 47.8438 11.8489 47.8874C11.8648 47.9311 11.8916 47.967 11.9295 47.9951C11.9748 48.028 12.0475 48.0526 12.1488 48.0696C12.2494 48.086 12.3795 48.0943 12.5402 48.0943C12.7867 48.0943 12.9667 48.0636 13.0792 48.0018C13.1922 47.9403 13.2485 47.8428 13.2485 47.7093V46.7229H13.5042ZM16.0228 47.8869V47.7484C16.0228 47.6714 15.9863 47.6171 15.9146 47.5861C15.8421 47.5548 15.705 47.5394 15.5024 47.5394H15.1236C14.9029 47.5394 14.7607 47.5575 14.6967 47.5928C14.6323 47.6283 14.6001 47.6982 14.6001 47.8011C14.6001 47.9212 14.6304 48.0004 14.6904 48.0378C14.7505 48.0753 14.8947 48.0943 15.1236 48.0943H15.5024C15.7081 48.0943 15.8461 48.0788 15.9164 48.0485C15.9873 48.0178 16.0228 47.9639 16.0228 47.8869ZM15.567 46.7019C15.8118 46.7019 15.9916 46.7486 16.1064 46.8426C16.2208 46.9365 16.2784 47.0831 16.2784 47.2838V48.3062H16.0376V48.0975C15.9966 48.1806 15.935 48.2395 15.8528 48.2746C15.7708 48.3098 15.6461 48.3273 15.4797 48.3273H15.059C14.7885 48.3273 14.5979 48.2893 14.4888 48.2128C14.3793 48.137 14.325 48.0035 14.325 47.813C14.325 47.634 14.3793 47.5072 14.4881 47.4343C14.597 47.3608 14.7853 47.3243 15.0528 47.3243H15.4962C15.6285 47.3243 15.7383 47.3394 15.8257 47.3697C15.9129 47.3999 15.9837 47.4471 16.0376 47.5122V47.2957C16.0376 47.1618 16.0018 47.0683 15.9303 47.0171C15.8586 46.9651 15.7241 46.9396 15.5264 46.9396H15.1507C14.9572 46.9396 14.8335 46.9539 14.7792 46.9833C14.7252 47.0123 14.6981 47.0693 14.6981 47.1546V47.2013H14.4332V47.1577C14.4332 46.997 14.4867 46.8809 14.5929 46.8097C14.699 46.7377 14.8721 46.7019 15.1116 46.7019H15.567ZM17.4609 46.0676V48.3062H17.213V46.0676H17.4609ZM18.4312 46.3668V46.0676H18.6836V46.3668H18.4312ZM18.4312 48.3062V46.7229H18.6836V48.3062H18.4312ZM19.9666 46.7229H21.0084V46.9365H19.9635V47.768C19.9635 47.8972 19.9917 47.9861 20.0476 48.0338C20.1042 48.0819 20.2324 48.106 20.4327 48.106C20.5952 48.106 20.7034 48.086 20.759 48.0459C20.8138 48.0059 20.8417 47.9194 20.8417 47.7859V47.583H21.0598V47.7859C21.0598 47.9865 21.0095 48.1265 20.9089 48.2071C20.8078 48.2872 20.6295 48.3273 20.374 48.3273C20.2405 48.3273 20.1318 48.3151 20.0472 48.2898C19.9619 48.2647 19.8922 48.2252 19.8372 48.1708C19.7961 48.1308 19.7669 48.0836 19.7499 48.0285C19.733 47.9742 19.7244 47.8817 19.7244 47.7515V46.9365H19.3845V46.7229H19.7244V46.3606H19.9666V46.7229ZM22.4415 48.3062L21.5859 46.7229H21.8624L22.6174 48.0943L23.3047 46.7229H23.5845L22.8024 48.3062C22.6832 48.5449 22.5724 48.6979 22.4703 48.7656C22.3681 48.8333 22.2269 48.8672 22.048 48.8672C22.0248 48.8672 21.994 48.8666 21.9559 48.8657C21.918 48.8645 21.8913 48.864 21.8765 48.864V48.6388C21.8922 48.6397 21.9082 48.641 21.9237 48.6414C21.939 48.6418 21.954 48.6418 21.9678 48.6418C22.134 48.6418 22.2558 48.6178 22.3316 48.569C22.4081 48.5203 22.4696 48.4326 22.5169 48.3062H22.4415ZM27.4394 46.3112H26.0289V47.1694H27.4394C27.6402 47.1694 27.7729 47.1448 27.8387 47.095C27.9045 47.0452 27.9371 46.9451 27.9371 46.7937V46.6869C27.9371 46.5364 27.9045 46.4366 27.8387 46.3863C27.7729 46.3365 27.6402 46.3112 27.4394 46.3112ZM26.0289 48.3062H25.751V46.0676H27.3491C27.7052 46.0676 27.9407 46.1055 28.0568 46.1808C28.1722 46.2568 28.2304 46.3965 28.2304 46.5997V46.8686C28.2304 47.0073 28.2016 47.1084 28.1441 47.1725C28.0862 47.2366 27.9839 47.2843 27.8366 47.3153C27.9589 47.3286 28.0511 47.3716 28.1134 47.4454C28.1754 47.5189 28.2063 47.6211 28.2063 47.7515V48.3062H27.9281V47.8068C27.9281 47.6607 27.8962 47.561 27.8326 47.5077C27.7689 47.4548 27.6206 47.428 27.387 47.428H26.0289V48.3062ZM30.2557 46.7019C30.5534 46.7019 30.7608 46.7568 30.8778 46.8671C30.9942 46.9775 31.0528 47.1711 31.0528 47.4476C31.0528 47.4805 31.0528 47.5056 31.0524 47.5225C31.0517 47.5394 31.0507 47.5554 31.0498 47.5692L29.3191 47.5709V47.6564C29.3191 47.8237 29.3596 47.9408 29.4406 48.0071C29.5217 48.0733 29.6636 48.106 29.8647 48.106H30.2767C30.4523 48.106 30.5816 48.084 30.6652 48.0405C30.749 47.9968 30.7911 47.9296 30.7911 47.8381V47.8219H31.0528V47.8624C31.0528 48.0147 30.9918 48.1303 30.87 48.2093C30.7484 48.2876 30.5699 48.3273 30.3353 48.3273H29.8621C29.5772 48.3273 29.3735 48.2746 29.2509 48.1692C29.1282 48.0641 29.0666 47.889 29.0666 47.6443V47.3923C29.0666 47.1432 29.1276 46.9663 29.2492 46.8604C29.3709 46.7546 29.5751 46.7019 29.8621 46.7019H30.2557ZM29.3191 47.3425H30.788V47.3048C30.788 47.1632 30.752 47.0662 30.6798 47.0128C30.6074 46.9601 30.464 46.9334 30.2496 46.9334H29.8574C29.6578 46.9334 29.5181 46.9641 29.4388 47.0256C29.3592 47.0874 29.3191 47.193 29.3191 47.3425ZM33.0043 48.0943C33.2336 48.0943 33.3861 48.061 33.461 47.9937C33.5363 47.9265 33.574 47.7957 33.574 47.6011V47.4132C33.574 47.2242 33.5359 47.0977 33.4606 47.0318C33.3844 46.9663 33.2327 46.9334 33.0043 46.9334H32.6505C32.4221 46.9334 32.2703 46.9663 32.1942 47.0318C32.1189 47.0977 32.0808 47.2242 32.0808 47.4132V47.6011C32.0808 47.7957 32.1185 47.9265 32.1938 47.9937C32.2686 48.061 32.4212 48.0943 32.6505 48.0943H33.0043ZM33.0097 48.3273H32.589C32.3165 48.3273 32.122 48.2738 32.0059 48.1672C31.8894 48.0605 31.8314 47.8807 31.8314 47.6283V47.3799C31.8314 47.1377 31.8905 46.9637 32.0081 46.859C32.126 46.7542 32.3196 46.7019 32.589 46.7019H33.0746C33.193 46.7019 33.2915 46.7198 33.3707 46.7553C33.4503 46.7906 33.517 46.8467 33.5709 46.9227V46.0676H33.8145V48.3062H33.595V48.0476C33.5518 48.1487 33.4872 48.2212 33.4014 48.2636C33.3158 48.3062 33.1854 48.3273 33.0097 48.3273ZM35.8655 46.7019C36.1633 46.7019 36.3707 46.7568 36.4878 46.8671C36.6041 46.9775 36.6627 47.1711 36.6627 47.4476C36.6627 47.4805 36.6627 47.5056 36.6623 47.5225C36.6616 47.5394 36.6606 47.5554 36.6596 47.5692L34.929 47.5709V47.6564C34.929 47.8237 34.9695 47.9408 35.0506 48.0071C35.1316 48.0733 35.2735 48.106 35.4747 48.106H35.8866C36.0623 48.106 36.1914 48.084 36.2751 48.0405C36.3588 47.9968 36.401 47.9296 36.401 47.8381V47.8219H36.6627V47.8624C36.6627 48.0147 36.6017 48.1303 36.4799 48.2093C36.3583 48.2876 36.1798 48.3273 35.9452 48.3273H35.4721C35.1871 48.3273 34.9833 48.2746 34.8608 48.1692C34.738 48.0641 34.6766 47.889 34.6766 47.6443V47.3923C34.6766 47.1432 34.7376 46.9663 34.8591 46.8604C34.9807 46.7546 35.185 46.7019 35.4721 46.7019H35.8655ZM34.929 47.3425H36.3979V47.3048C36.3979 47.1632 36.3619 47.0662 36.2896 47.0128C36.2172 46.9601 36.074 46.9334 35.8594 46.9334H35.4672C35.2678 46.9334 35.128 46.9641 35.0487 47.0256C34.969 47.0874 34.929 47.193 34.929 47.3425ZM37.6353 48.3062V46.9482H37.3033V46.7229H37.6353V46.6099C37.6353 46.4216 37.6816 46.284 37.7734 46.1972C37.8659 46.1105 38.0125 46.0676 38.2142 46.0676H38.6173V46.296H38.2229C38.0997 46.296 38.0125 46.3165 37.9612 46.3575C37.9104 46.3984 37.8847 46.4674 37.8847 46.5632V46.7229H38.6173V46.9482H37.8847V48.3062H37.6353ZM39.2578 46.3668V46.0676H39.5102V46.3668H39.2578ZM39.2578 48.3062V46.7229H39.5102V48.3062H39.2578ZM40.4363 48.3062V46.7229H40.686V47.0159C40.7448 46.9045 40.8363 46.8245 40.9606 46.7758C41.0843 46.7264 41.2602 46.7019 41.4891 46.7019C41.8157 46.7019 42.0433 46.7443 42.1718 46.8297C42.3 46.9148 42.3642 47.063 42.3642 47.2745V48.3062H42.1148V47.3425C42.1148 47.248 42.1069 47.1801 42.0917 47.1382C42.0757 47.096 42.0485 47.0612 42.0094 47.034C41.9653 47.002 41.8931 46.978 41.792 46.9611C41.6914 46.9446 41.5665 46.9365 41.4182 46.9365C41.1525 46.9365 40.9642 46.9687 40.8528 47.034C40.7413 47.0991 40.686 47.208 40.686 47.3604V48.3062H40.4363ZM44.409 46.7019C44.7067 46.7019 44.9142 46.7568 45.0312 46.8671C45.1475 46.9775 45.2061 47.1711 45.2061 47.4476C45.2061 47.4805 45.2061 47.5056 45.2057 47.5225C45.205 47.5394 45.204 47.5554 45.2031 47.5692L43.4724 47.5709V47.6564C43.4724 47.8237 43.5129 47.9408 43.594 48.0071C43.675 48.0733 43.8169 48.106 44.018 48.106H44.4299C44.6056 48.106 44.7349 48.084 44.8185 48.0405C44.9023 47.9968 44.9444 47.9296 44.9444 47.8381V47.8219H45.2061V47.8624C45.2061 48.0147 45.1451 48.1303 45.0233 48.2093C44.9017 48.2876 44.7232 48.3273 44.4886 48.3273H44.0154C43.7305 48.3273 43.5268 48.2746 43.4042 48.1692C43.2815 48.0641 43.22 47.889 43.22 47.6443V47.3923C43.22 47.1432 43.281 46.9663 43.4025 46.8604C43.5242 46.7546 43.7284 46.7019 44.0154 46.7019H44.409ZM43.4724 47.3425H44.9414V47.3048C44.9414 47.1632 44.9053 47.0662 44.8331 47.0128C44.7607 46.9601 44.6174 46.9334 44.4029 46.9334H44.0107C43.8111 46.9334 43.6714 46.9641 43.5921 47.0256C43.5125 47.0874 43.4724 47.193 43.4724 47.3425ZM47.1576 48.0943C47.3869 48.0943 47.5395 48.061 47.6143 47.9937C47.6897 47.9265 47.7273 47.7957 47.7273 47.6011V47.4132C47.7273 47.2242 47.6892 47.0977 47.6139 47.0318C47.5378 46.9663 47.386 46.9334 47.1576 46.9334H46.8038C46.5754 46.9334 46.4235 46.9663 46.3475 47.0318C46.2722 47.0977 46.2341 47.2242 46.2341 47.4132V47.6011C46.2341 47.7957 46.2718 47.9265 46.3471 47.9937C46.422 48.061 46.5745 48.0943 46.8038 48.0943H47.1576ZM47.1631 48.3273H46.7423C46.4698 48.3273 46.2753 48.2738 46.1592 48.1672C46.0427 48.0605 45.9847 47.8807 45.9847 47.6283V47.3799C45.9847 47.1377 46.0438 46.9637 46.1614 46.859C46.2794 46.7542 46.4729 46.7019 46.7423 46.7019H47.2279C47.3463 46.7019 47.4448 46.7198 47.524 46.7553C47.6036 46.7906 47.6703 46.8467 47.7242 46.9227V46.0676H47.9678V48.3062H47.7483V48.0476C47.7051 48.1487 47.6405 48.2212 47.5548 48.2636C47.4691 48.3062 47.3387 48.3273 47.1631 48.3273Z" fill="white"/>
<path fill-rule="evenodd" clip-rule="evenodd" d="M1.61328 1.61278H56.3872V56.3867H1.61328V1.61278ZM2.92906 2.92856H55.0714V55.0709H2.92906" fill="white"/>
</g>
<defs>
<clipPath id="clip0_133_101">
<rect width="58" height="58" fill="white"/>
</clipPath>
</defs>
</svg>
