<svg width="38" height="38" viewBox="0 0 38 38" fill="none" xmlns="http://www.w3.org/2000/svg">
<g clip-path="url(#clip0_143_292)">
<g clip-path="url(#clip1_143_292)">
<mask id="mask0_143_292" style="mask-type:luminance" maskUnits="userSpaceOnUse" x="0" y="0" width="38" height="38">
<path d="M38 0H0V38H38V0Z" fill="white"/>
</mask>
<g mask="url(#mask0_143_292)">
<path d="M8.70703 26.918C10.0188 26.918 11.0821 25.8547 11.0821 24.543C11.0821 23.2313 10.0188 22.168 8.70703 22.168C7.39536 22.168 6.33203 23.2313 6.33203 24.543C6.33203 25.8547 7.39536 26.918 8.70703 26.918Z" fill="#ED1A3A"/>
<path d="M30.0833 4.75H7.91667C5.81781 4.75251 3.80563 5.5874 2.32151 7.07151C0.837396 8.55563 0.00251411 10.5678 0 12.6667V25.3333C0.00251411 27.4322 0.837396 29.4444 2.32151 30.9285C3.80563 32.4126 5.81781 33.2475 7.91667 33.25H30.0833C32.1822 33.2475 34.1944 32.4126 35.6785 30.9285C37.1626 29.4444 37.9975 27.4322 38 25.3333V12.6667C37.9975 10.5678 37.1626 8.55563 35.6785 7.07151C34.1944 5.5874 32.1822 4.75251 30.0833 4.75ZM7.91667 7.91667H30.0833C31.3431 7.91667 32.5513 8.41711 33.4421 9.30791C34.3329 10.1987 34.8333 11.4069 34.8333 12.6667H3.16667C3.16667 11.4069 3.66711 10.1987 4.55791 9.30791C5.44871 8.41711 6.65689 7.91667 7.91667 7.91667ZM30.0833 30.0833H7.91667C6.65689 30.0833 5.44871 29.5829 4.55791 28.6921C3.66711 27.8013 3.16667 26.5931 3.16667 25.3333V15.8333H34.8333V25.3333C34.8333 26.5931 34.3329 27.8013 33.4421 28.6921C32.5513 29.5829 31.3431 30.0833 30.0833 30.0833Z" fill="#ED1A3A"/>
</g>
</g>
</g>
<defs>
<clipPath id="clip0_143_292">
<rect width="38" height="38" fill="white"/>
</clipPath>
<clipPath id="clip1_143_292">
<rect width="38" height="38" fill="white"/>
</clipPath>
</defs>
</svg>
