<svg width="29" height="28" viewBox="0 0 29 28" fill="none" xmlns="http://www.w3.org/2000/svg">
<g clip-path="url(#clip0_143_312)">
<g clip-path="url(#clip1_143_312)">
<g clip-path="url(#clip2_143_312)">
<path d="M22.9583 5.54232H20.5417V4.33399C20.5417 3.37258 20.1597 2.45055 19.4799 1.77073C18.8001 1.0909 17.8781 0.708984 16.9167 0.708984H3.625C2.66359 0.708984 1.74156 1.0909 1.06174 1.77073C0.381919 2.45055 0 3.37258 0 4.33399V22.459H2.46621C2.43512 22.6589 2.41856 22.8609 2.41667 23.0632C2.41667 24.1848 2.86224 25.2605 3.65536 26.0537C4.44848 26.8468 5.52419 27.2923 6.64583 27.2923C7.76748 27.2923 8.84318 26.8468 9.63631 26.0537C10.4294 25.2605 10.875 24.1848 10.875 23.0632C10.8731 22.8609 10.8565 22.6589 10.8255 22.459H18.1745C18.1435 22.6589 18.1269 22.8609 18.125 23.0632C18.125 24.1848 18.5706 25.2605 19.3637 26.0537C20.1568 26.8468 21.2325 27.2923 22.3542 27.2923C23.4758 27.2923 24.5515 26.8468 25.3446 26.0537C26.1378 25.2605 26.5833 24.1848 26.5833 23.0632C26.5814 22.8609 26.5649 22.6589 26.5338 22.459H29V11.584C28.9981 9.98223 28.3609 8.44662 27.2283 7.314C26.0957 6.18139 24.5601 5.54424 22.9583 5.54232ZM22.9583 7.95899C23.9197 7.95899 24.8418 8.34091 25.5216 9.02073C26.2014 9.70055 26.5833 10.6226 26.5833 11.584V12.7923H20.5417V7.95899H22.9583ZM8.45833 23.0632C8.45833 23.5439 8.26737 24.0049 7.92746 24.3448C7.58755 24.6847 7.12654 24.8757 6.64583 24.8757C6.16513 24.8757 5.70411 24.6847 5.3642 24.3448C5.02429 24.0049 4.83333 23.5439 4.83333 23.0632C4.83408 22.8567 4.87215 22.652 4.94571 22.459H8.34596C8.41952 22.652 8.45759 22.8567 8.45833 23.0632ZM18.125 20.0423H2.41667V4.33399C2.41667 4.01352 2.54397 3.70617 2.77058 3.47957C2.99719 3.25296 3.30453 3.12565 3.625 3.12565H16.9167C17.2371 3.12565 17.5445 3.25296 17.7711 3.47957C17.9977 3.70617 18.125 4.01352 18.125 4.33399V20.0423ZM24.1667 23.0632C24.1667 23.5439 23.9757 24.0049 23.6358 24.3448C23.2959 24.6847 22.8349 24.8757 22.3542 24.8757C21.8735 24.8757 21.4124 24.6847 21.0725 24.3448C20.7326 24.0049 20.5417 23.5439 20.5417 23.0632C20.5422 22.8566 20.5803 22.6519 20.654 22.459H24.0543C24.1281 22.6519 24.1661 22.8566 24.1667 23.0632ZM20.5417 20.0423V15.209H26.5833V20.0423H20.5417Z" fill="#ED1A3A"/>
</g>
</g>
</g>
<defs>
<clipPath id="clip0_143_312">
<rect width="29" height="27" fill="white" transform="translate(0 0.5)"/>
</clipPath>
<clipPath id="clip1_143_312">
<rect width="29" height="27" fill="white" transform="translate(0 0.5)"/>
</clipPath>
<clipPath id="clip2_143_312">
<rect width="29" height="27" fill="white" transform="translate(0 0.5)"/>
</clipPath>
</defs>
</svg>
